PathFileType	4	(X/Y/Z)	/Users/itak/Documents/Research/Walk-IL/dataset/trc/00026_00004.trc
DataRate	CameraRate	NumFrames	NumMarkers	Units	OrigDataRate	OrigDataStartFrame	OrigNumFrames
100.000000	100.000000	4	53	mm	100.000000	371	743
Frame#	Time	RPSI			LPSI			L3			STRN			T10			C7			CLAV			RBAK			LBAK			LSHO			LUPA			LAEL			LAOL			LWTS			LWPS			LFRA			LIFD			LHPS			LHTS			RSHO			RUPA			RAEL			RAOL			RWTS			RWPS			RFRA			RIFD			RHTS			RHPS			RBHD			LFHD			RFHD			LBHD			LHIP			RHIP			RASI			LASI			LKNE			LTHI			LANK			LTIP			LTOE			LMT1			LMT5			LHEE			RKNE			RTHI			RANK			RTIP			RTOE			RMT1			RMT5			RHEE			
		X1	Y1	Z1	X2	Y2	Z2	X3	Y3	Z3	X4	Y4	Z4	X5	Y5	Z5	X6	Y6	Z6	X7	Y7	Z7	X8	Y8	Z8	X9	Y9	Z9	X10	Y10	Z10	X11	Y11	Z11	X12	Y12	Z12	X13	Y13	Z13	X14	Y14	Z14	X15	Y15	Z15	X16	Y16	Z16	X17	Y17	Z17	X18	Y18	Z18	X19	Y19	Z19	X20	Y20	Z20	X21	Y21	Z21	X22	Y22	Z22	X23	Y23	Z23	X24	Y24	Z24	X25	Y25	Z25	X26	Y26	Z26	X27	Y27	Z27	X28	Y28	Z28	X29	Y29	Z29	X30	Y30	Z30	X31	Y31	Z31	X32	Y32	Z32	X33	Y33	Z33	X34	Y34	Z34	X35	Y35	Z35	X36	Y36	Z36	X37	Y37	Z37	X38	Y38	Z38	X39	Y39	Z39	X40	Y40	Z40	X41	Y41	Z41	X42	Y42	Z42	X43	Y43	Z43	X44	Y44	Z44	X45	Y45	Z45	X46	Y46	Z46	X47	Y47	Z47	X48	Y48	Z48	X49	Y49	Z49	X50	Y50	Z50	X51	Y51	Z51	X52	Y52	Z52	X53	Y53	Z53	

372	3.71	291.4064331054688	1038.120483398438	-751.61328125	279.3451843261719	1018.454711914062	-588.8301391601562	291.1792297363281	1091.453247070312	-660.1669311523438	62.24706649780273	1273.478393554688	-673.96484375	310.3222961425781	1237.275390625	-658.5956420898438	246.7319030761719	1501.200073242188	-634.5396118164062	99.14729309082031	1399.511474609375	-656.8314819335938	315.0247497558594	1374.666625976562	-720.5972900390625	262.1569519042969	1452.579345703125	-540.77294921875	157.3719940185547	1443.671997070312	-471.7994079589844	203.5567626953125	1317.802001953125	-403.8619079589844	239.7467651367188	1103.810302734375	-390.6083679199219	288.98876953125	1104.184204101562	-485.1742553710938	178.7883453369141	844.796142578125	-455.1283874511719	261.9517822265625	838.05517578125	-421.2334594726562	243.3938293457031	986.895263671875	-390.7466125488281	178.2806549072266	660.4937133789062	-487.4691162109375	241.9263763427734	744.7990112304688	-426.5992736816406	173.7497711181641	748.0505981445312	-447.3344421386719	184.4392547607422	1496.002807617188	-813.386474609375	207.947998046875	1434.4111328125	-889.1617431640625	259.2350769042969	1171.276489257812	-941.7705688476562	255.1640167236328	1133.64208984375	-847.282470703125	72.21002960205078	944.653564453125	-921.8147583007812	131.2801361083984	916.1726684570312	-987.5150146484375	234.6643981933594	1093.904296875	-963.0761108398438	13.88120937347412	772.0399780273438	-914.0292358398438	10.17472743988037	850.18994140625	-941.9309692382812	64.93618011474609	831.4067993164062	-991.6087646484375	159.9029388427734	1675.55029296875	-572.394287109375	-49.58677291870117	1626.233520507812	-603.5823364257812	-3.83518385887146	1619.874633789062	-516.9324951171875	87.44681549072266	1679.274536132812	-696.7633666992188	165.0148315429688	914.054931640625	-488.8584594726562	189.8841705322266	930.2935180664062	-865.8132934570312	79.19087982177734	954.0664672851562	-803.4141235351562	64.02292633056641	968.0001220703125	-567.433837890625	-57.50776672363281	536.1048583984375	-555.1128540039062	31.99142837524414	635.6072998046875	-508.6165771484375	-169.3519744873047	55.92079162597656	-578.8968505859375	-78.32625579833984	286.3420104980469	-550.8432006835938	-376.3829956054688	140.4809417724609	-603.2163696289062	-324.9453125	124.7053070068359	-630.1088256835938	-278.0651245117188	103.9185485839844	-537.8873901367188	-114.0225448608398	40.3707275390625	-642.5758056640625	265.9381713867188	503.6924438476562	-840.9154663085938	196.4945373535156	765.6358642578125	-868.260009765625	489.5799255371094	55.02700042724609	-810.6400146484375	322.560302734375	387.8873901367188	-841.5903930664062	255.9151611328125	38.75160980224609	-829.2271118164062	310.0171508789062	45.85195541381836	-785.2160034179688	353.4756164550781	35.85678482055664	-872.7518310546875	533.1014404296875	62.58676147460938	-754.44970703125	
373	3.72	281.4965209960938	1036.540161132812	-750.83154296875	269.5618286132812	1016.723999023438	-588.118896484375	281.4241027832031	1089.790893554688	-659.4193115234375	52.61085891723633	1271.856811523438	-672.4923095703125	300.5876770019531	1235.59326171875	-658.0972290039062	237.279541015625	1499.580932617188	-633.7213134765625	89.63101196289062	1397.856323242188	-655.4100341796875	305.3172912597656	1373.148559570312	-720.0933227539062	253.1401977539062	1450.844848632812	-540.0772094726562	148.7487335205078	1441.869506835938	-470.5992736816406	195.2732543945312	1315.855346679688	-403.0109252929688	231.2452239990234	1101.81396484375	-390.3579406738281	280.0086059570312	1102.270751953125	-485.2193298339844	169.9406433105469	842.8977661132812	-454.9837341308594	253.2814788818359	836.1101684570312	-421.5477600097656	234.8143463134766	984.8817138671875	-390.7208862304688	169.2183532714844	658.6553955078125	-487.4806213378906	233.1730804443359	742.859130859375	-426.8953857421875	164.8412780761719	746.1676025390625	-447.2316589355469	174.1852111816406	1494.302978515625	-812.3572387695312	197.3392028808594	1432.602783203125	-888.1510009765625	248.4494476318359	1169.47998046875	-940.918701171875	245.0843353271484	1131.949462890625	-846.30078125	61.41951370239258	942.9689331054688	-918.6349487304688	119.8347244262695	914.3329467773438	-984.8761596679688	223.5733032226562	1091.956176757812	-961.8123168945312	2.967891216278076	770.447265625	-909.810791015625	-0.9313955307006836	848.5618286132812	-937.8565673828125	53.28530120849609	829.5826416015625	-988.0548706054688	150.689208984375	1673.964599609375	-571.266845703125	-58.91508865356445	1624.239013671875	-600.6947631835938	-12.45515155792236	1617.93212890625	-514.4417724609375	77.18075561523438	1677.585083007812	-695.0135498046875	155.0919342041016	912.2721557617188	-488.3084411621094	180.1869506835938	929.119384765625	-865.1862182617188	69.31073760986328	952.6160278320312	-802.8428955078125	54.13031768798828	966.348876953125	-566.7788696289062	-66.46170043945312	534.6694946289062	-553.6947631835938	22.70103454589844	633.8867797851562	-508.0040893554688	-184.0661773681641	56.02627944946289	-575.8524169921875	-89.47166442871094	285.3100280761719	-548.8864135742188	-390.2740173339844	144.1824798583984	-596.117431640625	-339.5828552246094	127.6632690429688	-624.0615844726562	-291.2541809082031	105.8060150146484	-532.7867431640625	-130.1037292480469	39.60675811767578	-640.484619140625	258.6571960449219	503.09912109375	-841.1766357421875	187.6082000732422	764.6519775390625	-867.8834228515625	489.0979614257812	57.11589050292969	-811.161376953125	316.9130554199219	387.685791015625	-841.8484497070312	255.800537109375	38.72980117797852	-829.2736206054688	309.8706665039062	46.15697860717773	-785.3992919921875	353.2489929199219	35.83960723876953	-872.9296875	532.6017456054688	65.45751953125	-754.9998168945312	
374	3.73	271.3659362792969	1035.05224609375	-749.8508911132812	259.5740356445312	1015.118896484375	-587.2340698242188	271.4734497070312	1088.21240234375	-658.5035400390625	42.83997344970703	1270.377807617188	-670.831298828125	290.6676940917969	1233.982055664062	-657.3859252929688	227.7119903564453	1498.039428710938	-632.6801147460938	79.98802185058594	1396.339599609375	-653.792236328125	295.4697875976562	1371.696533203125	-719.370849609375	243.9970703125	1449.205688476562	-539.1754150390625	139.9803009033203	1440.209106445312	-469.20947265625	186.7979125976562	1314.043701171875	-401.9586791992188	222.4934997558594	1099.9541015625	-389.9072570800781	270.8087463378906	1100.481323242188	-485.05908203125	160.8133850097656	841.1557006835938	-454.5970458984375	244.3168182373047	834.2996826171875	-421.6276550292969	225.9813537597656	983.0130004882812	-390.4723815917969	159.7713317871094	656.9715576171875	-487.2652893066406	224.128662109375	741.0609130859375	-426.949462890625	155.609375	744.4273681640625	-446.9046630859375	163.8422241210938	1492.730834960938	-811.10205078125	186.6645660400391	1430.949829101562	-886.9209594726562	237.5817413330078	1167.836181640625	-939.8406982421875	234.9017791748047	1130.409423828125	-845.1314086914062	50.97955322265625	941.1568603515625	-915.4845581054688	108.7823791503906	912.5099487304688	-982.2447509765625	212.5291748046875	1090.19091796875	-960.3824462890625	-7.359397411346436	768.6062622070312	-905.746337890625	-11.54123210906982	846.6951904296875	-933.9031982421875	42.17022323608398	827.6547241210938	-984.5846557617188	141.4013519287109	1672.491943359375	-569.9385986328125	-68.30633544921875	1622.4033203125	-597.6676635742188	-21.1498851776123	1616.146606445312	-511.8059387207031	66.88569641113281	1676.03076171875	-693.0819702148438	144.9780883789062	910.6583251953125	-487.5588073730469	170.3029022216797	928.0133666992188	-864.352783203125	59.21232604980469	951.26171875	-802.0872802734375	44.05192565917969	964.8441772460938	-565.9288330078125	-75.88811492919922	533.3696899414062	-552.064453125	12.96259021759033	632.4676513671875	-507.1920471191406	-196.3740539550781	55.4321174621582	-573.35546875	-99.85788726806641	284.0692443847656	-547.0936279296875	-402.0993041992188	145.8572540283203	-590.0883178710938	-352.0591125488281	128.9135437011719	-618.9376220703125	-302.4107055664062	106.2936172485352	-528.4938354492188	-143.5794219970703	38.52648162841797	-638.7757568359375	251.0058746337891	502.5372924804688	-841.4534301757812	178.4843444824219	763.7520141601562	-867.4078979492188	488.5280151367188	59.4481201171875	-811.8291625976562	310.9076538085938	387.5466613769531	-842.1398315429688	255.6793670654297	38.71907806396484	-829.326904296875	309.7291259765625	46.52534866333008	-785.6244506835938	352.989013671875	35.83699417114258	-873.139892578125	532.0165405273438	68.67500305175781	-755.6554565429688	
375	3.74	261.0033569335938	1033.676025390625	-748.697509765625	249.3687896728516	1013.642150878906	-586.1844482421875	261.309814453125	1086.712158203125	-657.4305419921875	32.91365432739258	1269.046508789062	-668.9789428710938	280.55029296875	1232.43701171875	-656.465087890625	218.0325622558594	1496.573486328125	-631.4151611328125	70.19960021972656	1394.964721679688	-651.9761962890625	285.47265625	1370.305419921875	-718.4315795898438	234.7296600341797	1447.657958984375	-538.0623779296875	131.0633239746094	1438.696166992188	-467.6249694824219	178.1238403320312	1312.372314453125	-400.7033386230469	213.5060272216797	1098.236328125	-389.2437744140625	261.386474609375	1098.823974609375	-484.6888122558594	151.4051666259766	839.5725708007812	-453.9654541015625	235.056640625	832.6268310546875	-421.4613952636719	216.9006958007812	981.2928466796875	-389.9927368164062	149.9688568115234	655.4403686523438	-486.8297119140625	214.7864990234375	739.4066772460938	-426.7622680664062	146.0581970214844	742.8375854492188	-446.3566589355469	153.4074249267578	1491.295043945312	-809.6154174804688	175.9145812988281	1429.4609375	-885.4686889648438	226.6277770996094	1166.360107421875	-938.5386352539062	224.6040191650391	1129.03662109375	-843.7752685546875	40.91301727294922	939.2182006835938	-912.3837280273438	98.10373687744141	910.7068481445312	-979.634521484375	201.5282287597656	1088.621826171875	-958.793212890625	-17.08695411682129	766.5213012695312	-901.8660278320312	-21.65947341918945	844.59521484375	-930.0979614257812	31.59166717529297	825.6276245117188	-981.224365234375	132.0451507568359	1671.141357421875	-568.4088745117188	-77.76509094238281	1620.73583984375	-594.5074462890625	-29.91923522949219	1614.5283203125	-509.025634765625	56.56821441650391	1674.616333007812	-690.9696044921875	134.6683197021484	909.2223510742188	-486.6052856445312	160.1942443847656	926.9702758789062	-863.3150024414062	48.86252212524414	950.00048828125	-801.1389770507812	33.77275466918945	963.4925537109375	-564.875732421875	-85.72698211669922	532.1555786132812	-550.190673828125	2.837570667266846	631.3177490234375	-506.1652221679688	-206.3383636474609	54.10737228393555	-571.468994140625	-109.4886703491211	282.58056640625	-545.493896484375	-411.985107421875	145.4006042480469	-585.146728515625	-362.4800415039062	128.3568115234375	-614.7655029296875	-311.6168518066406	105.3045425415039	-525.0435791015625	-154.5033111572266	37.10602188110352	-637.542236328125	242.9858551025391	502.0022888183594	-841.7302856445312	169.0942230224609	762.9227905273438	-866.8196411132812	487.85009765625	62.03422546386719	-812.656005859375	304.546630859375	387.4780578613281	-842.4629516601562	255.5574798583984	38.72280883789062	-829.3934326171875	309.5942687988281	46.95939636230469	-785.89306640625	352.6825256347656	35.85497283935547	-873.3818969726562	531.32861328125	72.25251007080078	-756.415771484375	
